# xmcd
#
# Track frame offsets:
#  150
#  18977
#  34919
#  53470
#  69205
#  91250
#  107652
#  122940
#  135996
#  150095
#  161743
#  177745
#  193102
#  206053
#  223740
#
# Disc length: 3203 seconds
#
# Revision: 0
# Processed by: cddbd v1.5.1PL2 Copyright (c) Steve Scherf et al.
# Submitted via: Collectorz.com_Music_Collector 6.9
#
DISCID=ca0c810f
DTITLE=Connie Kis Andersen - Gone Wishin'
DYEAR=2005
DGENRE=Country
TTITLE0=Gone Wishin'
TTITLE1=Sad And Lonely
TTITLE2=You Stole My Heart
TTITLE3=I've Been Waitin
TTITLE4=Wicked Game
TTITLE5=It's Called Love
TTITLE6=I Can't Stop Now
TTITLE7=Come On, Come On
TTITLE8=I'll Get Back About That
TTITLE9=Kiss My Cheek
TTITLE10=It Sure Gets Late Early
TTITLE11=It's Too Late
TTITLE12=Ring Of Fire
TTITLE13=Please Pardon Me
TTITLE14=Let's Keep It Simple
EXTD=
EXTT0=
EXTT1=
EXTT2=
EXTT3=
EXTT4=
EXTT5=
EXTT6=
EXTT7=
EXTT8=
EXTT9=
EXTT10=
EXTT11=
EXTT12=
EXTT13=
EXTT14=
PLAYORDER=
